<mxfile host="app.diagrams.net" modified="2021-06-17T10:41:33.407Z" agent="5.0 (Windows NT 10.0; Win64; x64) AppleWebKit/537.36 (KHTML, like Gecko) Chrome/91.0.4472.106 Safari/537.36" etag="6jfvaVyn2eTMbWGg1hpH" version="14.7.10" type="github">
  <diagram name="Page-1" id="c37626ed-c26b-45fb-9056-f9ebc6bb27b6">
    <mxGraphModel dx="813" dy="421" grid="1" gridSize="10" guides="1" tooltips="1" connect="1" arrows="1" fold="1" page="1" pageScale="1" pageWidth="1100" pageHeight="850" background="none" math="0" shadow="0">
      <root>
        <mxCell id="0" />
        <mxCell id="1" parent="0" />
        <mxCell id="8PsUq4ZxQZs-wNVsTEpt-1" value="" style="shape=mxgraph.cisco.switches.layer_3_switch;html=1;pointerEvents=1;dashed=0;fillColor=#036897;strokeColor=#ffffff;strokeWidth=2;verticalLabelPosition=bottom;verticalAlign=top;align=center;outlineConnect=0;" vertex="1" parent="1">
          <mxGeometry x="356" y="620" width="64" height="64" as="geometry" />
        </mxCell>
        <mxCell id="8PsUq4ZxQZs-wNVsTEpt-2" value="" style="shape=mxgraph.cisco.storage.cloud;html=1;pointerEvents=1;dashed=0;fillColor=#036897;strokeColor=#ffffff;strokeWidth=2;verticalLabelPosition=bottom;verticalAlign=top;align=center;outlineConnect=0;" vertex="1" parent="1">
          <mxGeometry x="423.5" y="20" width="186" height="106" as="geometry" />
        </mxCell>
        <mxCell id="8PsUq4ZxQZs-wNVsTEpt-3" value="" style="shape=mxgraph.cisco.switches.layer_3_switch;html=1;pointerEvents=1;dashed=0;fillColor=#036897;strokeColor=#ffffff;strokeWidth=2;verticalLabelPosition=bottom;verticalAlign=top;align=center;outlineConnect=0;" vertex="1" parent="1">
          <mxGeometry x="620" y="620" width="64" height="64" as="geometry" />
        </mxCell>
        <mxCell id="8PsUq4ZxQZs-wNVsTEpt-8" value="Table" style="shape=table;startSize=30;container=1;collapsible=0;childLayout=tableLayout;fixedRows=1;rowLines=0;fontStyle=1;align=center;rounded=0;" vertex="1" parent="1">
          <mxGeometry x="820" y="10" width="270" height="270" as="geometry" />
        </mxCell>
        <mxCell id="8PsUq4ZxQZs-wNVsTEpt-22" style="shape=partialRectangle;html=1;whiteSpace=wrap;collapsible=0;dropTarget=0;pointerEvents=0;fillColor=none;top=0;left=0;bottom=1;right=0;points=[[0,0.5],[1,0.5]];portConstraint=eastwest;" vertex="1" parent="8PsUq4ZxQZs-wNVsTEpt-8">
          <mxGeometry y="30" width="270" height="30" as="geometry" />
        </mxCell>
        <mxCell id="8PsUq4ZxQZs-wNVsTEpt-23" value="DIST" style="shape=partialRectangle;html=1;whiteSpace=wrap;connectable=0;fillColor=none;top=0;left=0;bottom=0;right=0;overflow=hidden;" vertex="1" parent="8PsUq4ZxQZs-wNVsTEpt-22">
          <mxGeometry width="60" height="30" as="geometry" />
        </mxCell>
        <mxCell id="8PsUq4ZxQZs-wNVsTEpt-24" style="shape=partialRectangle;html=1;whiteSpace=wrap;connectable=0;fillColor=none;top=0;left=0;bottom=0;right=0;align=left;spacingLeft=6;overflow=hidden;expand=1;" vertex="1" parent="8PsUq4ZxQZs-wNVsTEpt-22">
          <mxGeometry x="60" width="210" height="30" as="geometry" />
        </mxCell>
        <mxCell id="8PsUq4ZxQZs-wNVsTEpt-19" style="shape=partialRectangle;html=1;whiteSpace=wrap;collapsible=0;dropTarget=0;pointerEvents=0;fillColor=none;top=0;left=0;bottom=1;right=0;points=[[0,0.5],[1,0.5]];portConstraint=eastwest;" vertex="1" parent="8PsUq4ZxQZs-wNVsTEpt-8">
          <mxGeometry y="60" width="270" height="30" as="geometry" />
        </mxCell>
        <mxCell id="8PsUq4ZxQZs-wNVsTEpt-20" value="VIRT" style="shape=partialRectangle;html=1;whiteSpace=wrap;connectable=0;fillColor=none;top=0;left=0;bottom=0;right=0;overflow=hidden;" vertex="1" parent="8PsUq4ZxQZs-wNVsTEpt-19">
          <mxGeometry width="60" height="30" as="geometry" />
        </mxCell>
        <mxCell id="8PsUq4ZxQZs-wNVsTEpt-21" style="shape=partialRectangle;html=1;whiteSpace=wrap;connectable=0;fillColor=none;top=0;left=0;bottom=0;right=0;align=left;spacingLeft=6;overflow=hidden;expand=1;" vertex="1" parent="8PsUq4ZxQZs-wNVsTEpt-19">
          <mxGeometry x="60" width="210" height="30" as="geometry" />
        </mxCell>
        <mxCell id="8PsUq4ZxQZs-wNVsTEpt-9" value="" style="shape=partialRectangle;html=1;whiteSpace=wrap;collapsible=0;dropTarget=0;pointerEvents=0;fillColor=none;top=0;left=0;bottom=1;right=0;points=[[0,0.5],[1,0.5]];portConstraint=eastwest;" vertex="1" parent="8PsUq4ZxQZs-wNVsTEpt-8">
          <mxGeometry y="90" width="270" height="30" as="geometry" />
        </mxCell>
        <mxCell id="8PsUq4ZxQZs-wNVsTEpt-10" value="DCI" style="shape=partialRectangle;html=1;whiteSpace=wrap;connectable=0;fillColor=none;top=0;left=0;bottom=0;right=0;overflow=hidden;" vertex="1" parent="8PsUq4ZxQZs-wNVsTEpt-9">
          <mxGeometry width="60" height="30" as="geometry" />
        </mxCell>
        <mxCell id="8PsUq4ZxQZs-wNVsTEpt-11" value="" style="shape=partialRectangle;html=1;whiteSpace=wrap;connectable=0;fillColor=none;top=0;left=0;bottom=0;right=0;align=left;spacingLeft=6;overflow=hidden;expand=1;" vertex="1" parent="8PsUq4ZxQZs-wNVsTEpt-9">
          <mxGeometry x="60" width="210" height="30" as="geometry" />
        </mxCell>
        <mxCell id="8PsUq4ZxQZs-wNVsTEpt-40" style="shape=partialRectangle;html=1;whiteSpace=wrap;collapsible=0;dropTarget=0;pointerEvents=0;fillColor=none;top=0;left=0;bottom=1;right=0;points=[[0,0.5],[1,0.5]];portConstraint=eastwest;" vertex="1" parent="8PsUq4ZxQZs-wNVsTEpt-8">
          <mxGeometry y="120" width="270" height="30" as="geometry" />
        </mxCell>
        <mxCell id="8PsUq4ZxQZs-wNVsTEpt-41" value="PE" style="shape=partialRectangle;html=1;whiteSpace=wrap;connectable=0;fillColor=none;top=0;left=0;bottom=0;right=0;overflow=hidden;" vertex="1" parent="8PsUq4ZxQZs-wNVsTEpt-40">
          <mxGeometry width="60" height="30" as="geometry" />
        </mxCell>
        <mxCell id="8PsUq4ZxQZs-wNVsTEpt-42" style="shape=partialRectangle;html=1;whiteSpace=wrap;connectable=0;fillColor=none;top=0;left=0;bottom=0;right=0;align=left;spacingLeft=6;overflow=hidden;" vertex="1" parent="8PsUq4ZxQZs-wNVsTEpt-40">
          <mxGeometry x="60" width="210" height="30" as="geometry" />
        </mxCell>
        <mxCell id="8PsUq4ZxQZs-wNVsTEpt-37" style="shape=partialRectangle;html=1;whiteSpace=wrap;collapsible=0;dropTarget=0;pointerEvents=0;fillColor=none;top=0;left=0;bottom=1;right=0;points=[[0,0.5],[1,0.5]];portConstraint=eastwest;" vertex="1" parent="8PsUq4ZxQZs-wNVsTEpt-8">
          <mxGeometry y="150" width="270" height="30" as="geometry" />
        </mxCell>
        <mxCell id="8PsUq4ZxQZs-wNVsTEpt-38" value="RR" style="shape=partialRectangle;html=1;whiteSpace=wrap;connectable=0;fillColor=none;top=0;left=0;bottom=0;right=0;overflow=hidden;" vertex="1" parent="8PsUq4ZxQZs-wNVsTEpt-37">
          <mxGeometry width="60" height="30" as="geometry" />
        </mxCell>
        <mxCell id="8PsUq4ZxQZs-wNVsTEpt-39" style="shape=partialRectangle;html=1;whiteSpace=wrap;connectable=0;fillColor=none;top=0;left=0;bottom=0;right=0;align=left;spacingLeft=6;overflow=hidden;" vertex="1" parent="8PsUq4ZxQZs-wNVsTEpt-37">
          <mxGeometry x="60" width="210" height="30" as="geometry" />
        </mxCell>
        <mxCell id="8PsUq4ZxQZs-wNVsTEpt-34" style="shape=partialRectangle;html=1;whiteSpace=wrap;collapsible=0;dropTarget=0;pointerEvents=0;fillColor=none;top=0;left=0;bottom=1;right=0;points=[[0,0.5],[1,0.5]];portConstraint=eastwest;" vertex="1" parent="8PsUq4ZxQZs-wNVsTEpt-8">
          <mxGeometry y="180" width="270" height="30" as="geometry" />
        </mxCell>
        <mxCell id="8PsUq4ZxQZs-wNVsTEpt-35" value="CORE" style="shape=partialRectangle;html=1;whiteSpace=wrap;connectable=0;fillColor=none;top=0;left=0;bottom=0;right=0;overflow=hidden;" vertex="1" parent="8PsUq4ZxQZs-wNVsTEpt-34">
          <mxGeometry width="60" height="30" as="geometry" />
        </mxCell>
        <mxCell id="8PsUq4ZxQZs-wNVsTEpt-36" style="shape=partialRectangle;html=1;whiteSpace=wrap;connectable=0;fillColor=none;top=0;left=0;bottom=0;right=0;align=left;spacingLeft=6;overflow=hidden;" vertex="1" parent="8PsUq4ZxQZs-wNVsTEpt-34">
          <mxGeometry x="60" width="210" height="30" as="geometry" />
        </mxCell>
        <mxCell id="8PsUq4ZxQZs-wNVsTEpt-31" style="shape=partialRectangle;html=1;whiteSpace=wrap;collapsible=0;dropTarget=0;pointerEvents=0;fillColor=none;top=0;left=0;bottom=1;right=0;points=[[0,0.5],[1,0.5]];portConstraint=eastwest;" vertex="1" parent="8PsUq4ZxQZs-wNVsTEpt-8">
          <mxGeometry y="210" width="270" height="30" as="geometry" />
        </mxCell>
        <mxCell id="8PsUq4ZxQZs-wNVsTEpt-32" value="SPINE" style="shape=partialRectangle;html=1;whiteSpace=wrap;connectable=0;fillColor=none;top=0;left=0;bottom=0;right=0;overflow=hidden;" vertex="1" parent="8PsUq4ZxQZs-wNVsTEpt-31">
          <mxGeometry width="60" height="30" as="geometry" />
        </mxCell>
        <mxCell id="8PsUq4ZxQZs-wNVsTEpt-33" style="shape=partialRectangle;html=1;whiteSpace=wrap;connectable=0;fillColor=none;top=0;left=0;bottom=0;right=0;align=left;spacingLeft=6;overflow=hidden;" vertex="1" parent="8PsUq4ZxQZs-wNVsTEpt-31">
          <mxGeometry x="60" width="210" height="30" as="geometry" />
        </mxCell>
        <mxCell id="8PsUq4ZxQZs-wNVsTEpt-12" value="" style="shape=partialRectangle;html=1;whiteSpace=wrap;collapsible=0;dropTarget=0;pointerEvents=0;fillColor=none;top=0;left=0;bottom=0;right=0;points=[[0,0.5],[1,0.5]];portConstraint=eastwest;" vertex="1" parent="8PsUq4ZxQZs-wNVsTEpt-8">
          <mxGeometry y="240" width="270" height="30" as="geometry" />
        </mxCell>
        <mxCell id="8PsUq4ZxQZs-wNVsTEpt-13" value="LEAF" style="shape=partialRectangle;html=1;whiteSpace=wrap;connectable=0;fillColor=none;top=0;left=0;bottom=0;right=0;overflow=hidden;" vertex="1" parent="8PsUq4ZxQZs-wNVsTEpt-12">
          <mxGeometry width="60" height="30" as="geometry" />
        </mxCell>
        <mxCell id="8PsUq4ZxQZs-wNVsTEpt-14" value="" style="shape=partialRectangle;html=1;whiteSpace=wrap;connectable=0;fillColor=none;top=0;left=0;bottom=0;right=0;align=left;spacingLeft=6;overflow=hidden;" vertex="1" parent="8PsUq4ZxQZs-wNVsTEpt-12">
          <mxGeometry x="60" width="210" height="30" as="geometry" />
        </mxCell>
        <mxCell id="8PsUq4ZxQZs-wNVsTEpt-69" value="" style="shape=mxgraph.cisco.storage.cloud;html=1;pointerEvents=1;dashed=0;fillColor=#036897;strokeColor=#ffffff;strokeWidth=2;verticalLabelPosition=bottom;verticalAlign=top;align=center;outlineConnect=0;" vertex="1" parent="1">
          <mxGeometry x="448" y="760" width="130" height="70" as="geometry" />
        </mxCell>
        <mxCell id="8PsUq4ZxQZs-wNVsTEpt-71" value="Client" style="text;html=1;align=center;verticalAlign=middle;whiteSpace=wrap;rounded=0;fillColor=#f5f5f5;strokeColor=#666666;fontColor=#333333;" vertex="1" parent="1">
          <mxGeometry x="483" y="777.5" width="67" height="35" as="geometry" />
        </mxCell>
        <mxCell id="8PsUq4ZxQZs-wNVsTEpt-72" value="" style="endArrow=none;html=1;exitX=0.04;exitY=0.5;exitDx=0;exitDy=0;exitPerimeter=0;entryX=0.5;entryY=1;entryDx=0;entryDy=0;entryPerimeter=0;" edge="1" parent="1" source="8PsUq4ZxQZs-wNVsTEpt-69" target="8PsUq4ZxQZs-wNVsTEpt-1">
          <mxGeometry width="50" height="50" relative="1" as="geometry">
            <mxPoint x="590" y="540" as="sourcePoint" />
            <mxPoint x="640" y="490" as="targetPoint" />
          </mxGeometry>
        </mxCell>
        <mxCell id="8PsUq4ZxQZs-wNVsTEpt-73" value="" style="endArrow=none;html=1;exitX=0.98;exitY=0.5;exitDx=0;exitDy=0;exitPerimeter=0;entryX=0.5;entryY=1;entryDx=0;entryDy=0;entryPerimeter=0;" edge="1" parent="1" source="8PsUq4ZxQZs-wNVsTEpt-69" target="8PsUq4ZxQZs-wNVsTEpt-3">
          <mxGeometry width="50" height="50" relative="1" as="geometry">
            <mxPoint x="463.20000000000005" y="805" as="sourcePoint" />
            <mxPoint x="398" y="694" as="targetPoint" />
          </mxGeometry>
        </mxCell>
        <mxCell id="8PsUq4ZxQZs-wNVsTEpt-75" value="" style="shape=mxgraph.cisco.routers.router;html=1;pointerEvents=1;dashed=0;fillColor=#036897;strokeColor=#ffffff;strokeWidth=2;verticalLabelPosition=bottom;verticalAlign=top;align=center;outlineConnect=0;rounded=0;" vertex="1" parent="1">
          <mxGeometry x="349" y="460" width="78" height="53" as="geometry" />
        </mxCell>
        <mxCell id="8PsUq4ZxQZs-wNVsTEpt-76" value="" style="shape=mxgraph.cisco.routers.router;html=1;pointerEvents=1;dashed=0;fillColor=#036897;strokeColor=#ffffff;strokeWidth=2;verticalLabelPosition=bottom;verticalAlign=top;align=center;outlineConnect=0;rounded=0;" vertex="1" parent="1">
          <mxGeometry x="613" y="460" width="78" height="53" as="geometry" />
        </mxCell>
        <mxCell id="8PsUq4ZxQZs-wNVsTEpt-78" value="INTERNET" style="text;html=1;align=center;verticalAlign=middle;whiteSpace=wrap;rounded=0;fillColor=#f5f5f5;strokeColor=#666666;fontColor=#333333;" vertex="1" parent="1">
          <mxGeometry x="477.5" y="48" width="100" height="50" as="geometry" />
        </mxCell>
        <mxCell id="8PsUq4ZxQZs-wNVsTEpt-79" value="" style="shape=mxgraph.cisco.routers.router;html=1;pointerEvents=1;dashed=0;fillColor=#036897;strokeColor=#ffffff;strokeWidth=2;verticalLabelPosition=bottom;verticalAlign=top;align=center;outlineConnect=0;rounded=0;" vertex="1" parent="1">
          <mxGeometry x="349" y="310" width="78" height="53" as="geometry" />
        </mxCell>
        <mxCell id="8PsUq4ZxQZs-wNVsTEpt-80" value="" style="shape=mxgraph.cisco.routers.router;html=1;pointerEvents=1;dashed=0;fillColor=#036897;strokeColor=#ffffff;strokeWidth=2;verticalLabelPosition=bottom;verticalAlign=top;align=center;outlineConnect=0;rounded=0;" vertex="1" parent="1">
          <mxGeometry x="613" y="310" width="78" height="53" as="geometry" />
        </mxCell>
        <mxCell id="8PsUq4ZxQZs-wNVsTEpt-81" value="" style="shape=mxgraph.cisco.routers.router;html=1;pointerEvents=1;dashed=0;fillColor=#036897;strokeColor=#ffffff;strokeWidth=2;verticalLabelPosition=bottom;verticalAlign=top;align=center;outlineConnect=0;rounded=0;" vertex="1" parent="1">
          <mxGeometry x="477.5" y="190" width="78" height="53" as="geometry" />
        </mxCell>
        <mxCell id="8PsUq4ZxQZs-wNVsTEpt-83" value="" style="endArrow=none;html=1;entryX=0.5;entryY=1;entryDx=0;entryDy=0;entryPerimeter=0;exitX=0.5;exitY=0;exitDx=0;exitDy=0;exitPerimeter=0;" edge="1" parent="1" source="8PsUq4ZxQZs-wNVsTEpt-79" target="8PsUq4ZxQZs-wNVsTEpt-81">
          <mxGeometry width="50" height="50" relative="1" as="geometry">
            <mxPoint x="650" y="510" as="sourcePoint" />
            <mxPoint x="700" y="460" as="targetPoint" />
          </mxGeometry>
        </mxCell>
        <mxCell id="8PsUq4ZxQZs-wNVsTEpt-84" value="" style="endArrow=none;html=1;entryX=0.5;entryY=1;entryDx=0;entryDy=0;entryPerimeter=0;exitX=0.5;exitY=0;exitDx=0;exitDy=0;exitPerimeter=0;" edge="1" parent="1" source="8PsUq4ZxQZs-wNVsTEpt-80" target="8PsUq4ZxQZs-wNVsTEpt-81">
          <mxGeometry width="50" height="50" relative="1" as="geometry">
            <mxPoint x="398" y="320" as="sourcePoint" />
            <mxPoint x="526.5" y="253" as="targetPoint" />
          </mxGeometry>
        </mxCell>
      </root>
    </mxGraphModel>
  </diagram>
</mxfile>
